solid OpenSCAD_Model
  facet normal 0 0 -1
    outer loop
      vertex 67.234 -41.4555 -0.75
      vertex 71.5113 -39.1928 -0.75
      vertex 71.2599 -41.1763 -0.75
    endloop
  endfacet
  facet normal -0 0 -1
    outer loop
      vertex 71.5113 -39.1928 -0.75
      vertex 67.234 -41.4555 -0.75
      vertex 70.6025 -24.0325 -0.75
    endloop
  endfacet
  facet normal 0 0 -1
    outer loop
      vertex 70.495 -21.4905 -0.75
      vertex 47.3666 -5.1107 -0.75
      vertex 70.0194 -3.92863 -0.75
    endloop
  endfacet
  facet normal 0 0 -1
    outer loop
      vertex 47.3666 -5.1107 -0.75
      vertex 70.495 -21.4905 -0.75
      vertex 47.8853 -22.6821 -0.75
    endloop
  endfacet
  facet normal 0 0 -1
    outer loop
      vertex 70.6025 -24.0325 -0.75
      vertex 47.8853 -22.6821 -0.75
      vertex 70.495 -21.4905 -0.75
    endloop
  endfacet
  facet normal 0 0 -1
    outer loop
      vertex 47.9953 -26.2952 -0.75
      vertex 70.6025 -24.0325 -0.75
      vertex 67.234 -41.4555 -0.75
    endloop
  endfacet
  facet normal 0 0 -1
    outer loop
      vertex 48.9041 57.5755 -0.75
      vertex 71.6101 56.9607 -0.75
      vertex 70.6025 40.1525 -0.75
    endloop
  endfacet
  facet normal 0 0 -1
    outer loop
      vertex 47.8853 38.8021 -0.75
      vertex 70.6025 40.1525 -0.75
      vertex 70.495 37.6105 -0.75
    endloop
  endfacet
  facet normal 0 0 -1
    outer loop
      vertex 70.0194 -3.92863 -0.75
      vertex 47.3527 -1.14499 -0.75
      vertex 69.9824 -1.13499 -0.75
    endloop
  endfacet
  facet normal 0 0 -1
    outer loop
      vertex 47.3527 -1.14001 -0.75
      vertex 69.9824 -1.13499 -0.75
      vertex 47.3527 -1.14499 -0.75
    endloop
  endfacet
  facet normal -0 0 -1
    outer loop
      vertex 69.9824 -1.13499 -0.75
      vertex 47.3527 -1.14001 -0.75
      vertex 69.9824 17.255 -0.75
    endloop
  endfacet
  facet normal 0 0 -1
    outer loop
      vertex 69.9824 17.255 -0.75
      vertex 47.3527 17.265 -0.75
      vertex 70.0194 20.0486 -0.75
    endloop
  endfacet
  facet normal 0 0 -1
    outer loop
      vertex 47.9953 -26.2952 -0.75
      vertex 67.234 -41.4555 -0.75
      vertex 48.9041 -41.4555 -0.75
    endloop
  endfacet
  facet normal -0 0 -1
    outer loop
      vertex 70.6025 -24.0325 -0.75
      vertex 48.0307 -26.016 -0.75
      vertex 47.8853 -22.6821 -0.75
    endloop
  endfacet
  facet normal 0 -0 -1
    outer loop
      vertex 48.9041 57.5755 -0.75
      vertex 70.6025 40.1525 -0.75
      vertex 47.9953 42.4152 -0.75
    endloop
  endfacet
  facet normal 0 0 -1
    outer loop
      vertex 70.6025 -24.0325 -0.75
      vertex 47.9953 -26.2952 -0.75
      vertex 48.0307 -26.016 -0.75
    endloop
  endfacet
  facet normal 0 0 -1
    outer loop
      vertex 47.3141 -1.14 -0.75
      vertex 47.3527 17.26 -0.75
      vertex 47.3527 -1.14001 -0.75
    endloop
  endfacet
  facet normal -0 0 -1
    outer loop
      vertex 47.3527 17.26 -0.75
      vertex 47.3141 -1.14 -0.75
      vertex 47.3141 17.26 -0.75
    endloop
  endfacet
  facet normal 0 0 -1
    outer loop
      vertex 47.4031 -4.95757 -0.75
      vertex 47.4069 -4.96712 -0.75
      vertex 47.4034 -4.96712 -0.75
    endloop
  endfacet
  facet normal 0 -0 -1
    outer loop
      vertex 47.4069 21.0871 -0.75
      vertex 70.0194 20.0486 -0.75
      vertex 47.3527 17.265 -0.75
    endloop
  endfacet
  facet normal 0 0 -1
    outer loop
      vertex 47.3527 -1.14499 -0.75
      vertex 47.4069 -4.96712 -0.75
      vertex 47.4031 -4.95757 -0.75
    endloop
  endfacet
  facet normal 0 0 -1
    outer loop
      vertex 47.3666 21.2307 -0.75
      vertex 70.0194 20.0486 -0.75
      vertex 47.4069 21.0871 -0.75
    endloop
  endfacet
  facet normal 0 0 -1
    outer loop
      vertex 47.3527 17.265 -0.75
      vertex 69.9824 17.255 -0.75
      vertex 47.3527 17.26 -0.75
    endloop
  endfacet
  facet normal 0 0 -1
    outer loop
      vertex 70.0194 20.0486 -0.75
      vertex 47.3666 21.2307 -0.75
      vertex 70.495 37.6105 -0.75
    endloop
  endfacet
  facet normal -0 0 -1
    outer loop
      vertex 47.4069 21.0871 -0.75
      vertex 47.4031 21.0776 -0.75
      vertex 47.4034 21.0871 -0.75
    endloop
  endfacet
  facet normal 0 0 -1
    outer loop
      vertex 47.4069 21.0871 -0.75
      vertex 47.3527 17.265 -0.75
      vertex 47.4031 21.0776 -0.75
    endloop
  endfacet
  facet normal 0 0 -1
    outer loop
      vertex 48.0259 -26.0077 -0.75
      vertex 48.0307 -26.016 -0.75
      vertex 48.0264 -26.016 -0.75
    endloop
  endfacet
  facet normal 0 -0 -1
    outer loop
      vertex 47.4069 -4.96712 -0.75
      vertex 70.0194 -3.92863 -0.75
      vertex 47.3666 -5.1107 -0.75
    endloop
  endfacet
  facet normal 0 0 -1
    outer loop
      vertex 48.0307 -26.016 -0.75
      vertex 48.0259 -26.0077 -0.75
      vertex 47.8853 -22.6821 -0.75
    endloop
  endfacet
  facet normal 0 0 -1
    outer loop
      vertex 70.6025 40.1525 -0.75
      vertex 48.0307 42.136 -0.75
      vertex 47.9953 42.4152 -0.75
    endloop
  endfacet
  facet normal 0 -0 -1
    outer loop
      vertex 48.0259 42.1277 -0.75
      vertex 48.0307 42.136 -0.75
      vertex 47.8853 38.8021 -0.75
    endloop
  endfacet
  facet normal -0 0 -1
    outer loop
      vertex 48.0307 42.136 -0.75
      vertex 48.0259 42.1277 -0.75
      vertex 48.0264 42.136 -0.75
    endloop
  endfacet
  facet normal 0 0 -1
    outer loop
      vertex 47.3666 -5.1107 -0.75
      vertex 47.8853 -22.6821 -0.75
      vertex 47.8424 -22.6821 -0.75
    endloop
  endfacet
  facet normal 0 0 -1
    outer loop
      vertex 47.3527 17.26 -0.75
      vertex 69.9824 17.255 -0.75
      vertex 47.3527 -1.14001 -0.75
    endloop
  endfacet
  facet normal -0 0 -1
    outer loop
      vertex 70.6025 40.1525 -0.75
      vertex 47.8853 38.8021 -0.75
      vertex 48.0307 42.136 -0.75
    endloop
  endfacet
  facet normal 0 0 -1
    outer loop
      vertex 47.3527 -1.14499 -0.75
      vertex 70.0194 -3.92863 -0.75
      vertex 47.4069 -4.96712 -0.75
    endloop
  endfacet
  facet normal -0 0 -1
    outer loop
      vertex 71.3587 58.9441 -0.75
      vertex 48.9041 57.5755 -0.75
      vertex 49.034 58.9441 -0.75
    endloop
  endfacet
  facet normal 0 0 -1
    outer loop
      vertex 71.6101 56.9607 -0.75
      vertex 48.9041 57.5755 -0.75
      vertex 71.3587 58.9441 -0.75
    endloop
  endfacet
  facet normal -0 0 -1
    outer loop
      vertex 70.495 37.6105 -0.75
      vertex 47.3666 21.2307 -0.75
      vertex 47.8853 38.8021 -0.75
    endloop
  endfacet
  facet normal -0 0 -1
    outer loop
      vertex 47.8853 38.8021 -0.75
      vertex 47.3666 21.2307 -0.75
      vertex 47.8424 38.8021 -0.75
    endloop
  endfacet
  facet normal -0 0 1
    outer loop
      vertex 47.3141 17.26 0.75
      vertex 47.3527 -1.14001 0.75
      vertex 47.3527 17.26 0.75
    endloop
  endfacet
  facet normal 0 0 1
    outer loop
      vertex 47.3527 -1.14001 0.75
      vertex 47.3141 17.26 0.75
      vertex 47.3141 -1.14 0.75
    endloop
  endfacet
  facet normal 0 0 1
    outer loop
      vertex 47.4031 21.0776 0.75
      vertex 47.4069 21.0871 0.75
      vertex 47.4034 21.0871 0.75
    endloop
  endfacet
  facet normal 0 0 1
    outer loop
      vertex 47.4069 21.0871 0.75
      vertex 47.3527 17.26 0.75
      vertex 47.4069 -4.96712 0.75
    endloop
  endfacet
  facet normal 0 0 1
    outer loop
      vertex 47.3527 17.265 0.75
      vertex 47.4069 21.0871 0.75
      vertex 47.4031 21.0776 0.75
    endloop
  endfacet
  facet normal -0 0 1
    outer loop
      vertex 47.3527 -1.14001 0.75
      vertex 47.4069 -4.96712 0.75
      vertex 47.3527 17.26 0.75
    endloop
  endfacet
  facet normal 0 0 1
    outer loop
      vertex 47.4069 21.0871 0.75
      vertex 47.3527 17.265 0.75
      vertex 47.3527 17.26 0.75
    endloop
  endfacet
  facet normal -0 0 1
    outer loop
      vertex 47.3527 -1.14499 0.75
      vertex 47.4069 -4.96712 0.75
      vertex 47.3527 -1.14001 0.75
    endloop
  endfacet
  facet normal 0 0 1
    outer loop
      vertex 47.4069 -4.96712 0.75
      vertex 47.4031 -4.95757 0.75
      vertex 47.4034 -4.96712 0.75
    endloop
  endfacet
  facet normal 0 0 1
    outer loop
      vertex 47.4069 -4.96712 0.75
      vertex 47.3527 -1.14499 0.75
      vertex 47.4031 -4.95757 0.75
    endloop
  endfacet
  facet normal 0 0 1
    outer loop
      vertex 47.3666 21.2307 0.75
      vertex 70.495 37.6105 0.75
      vertex 47.8853 38.8021 0.75
    endloop
  endfacet
  facet normal -0 -0 1
    outer loop
      vertex 47.4069 21.0871 0.75
      vertex 70.0194 20.0486 0.75
      vertex 47.3666 21.2307 0.75
    endloop
  endfacet
  facet normal 0 0 1
    outer loop
      vertex 70.495 37.6105 0.75
      vertex 47.3666 21.2307 0.75
      vertex 70.0194 20.0486 0.75
    endloop
  endfacet
  facet normal 0 0 1
    outer loop
      vertex 69.9824 17.255 0.75
      vertex 47.8853 -22.6821 0.75
      vertex 48.0307 -26.016 0.75
    endloop
  endfacet
  facet normal -0 -0 1
    outer loop
      vertex 48.0259 -26.0077 0.75
      vertex 48.0307 -26.016 0.75
      vertex 47.8853 -22.6821 0.75
    endloop
  endfacet
  facet normal 0 0 1
    outer loop
      vertex 48.0307 -26.016 0.75
      vertex 48.0259 -26.0077 0.75
      vertex 48.0264 -26.016 0.75
    endloop
  endfacet
  facet normal 0 0 1
    outer loop
      vertex 47.3666 21.2307 0.75
      vertex 47.8853 38.8021 0.75
      vertex 47.8424 38.8021 0.75
    endloop
  endfacet
  facet normal 0 0 1
    outer loop
      vertex 47.4069 -4.96712 0.75
      vertex 69.9824 17.255 0.75
      vertex 47.4069 21.0871 0.75
    endloop
  endfacet
  facet normal 0 0 1
    outer loop
      vertex 69.9824 17.255 0.75
      vertex 47.4069 -4.96712 0.75
      vertex 47.8853 -22.6821 0.75
    endloop
  endfacet
  facet normal 0 0 1
    outer loop
      vertex 70.0194 20.0486 0.75
      vertex 47.4069 21.0871 0.75
      vertex 69.9824 17.255 0.75
    endloop
  endfacet
  facet normal -0 0 1
    outer loop
      vertex 48.9041 57.5755 0.75
      vertex 71.6101 56.9607 0.75
      vertex 71.3587 58.9441 0.75
    endloop
  endfacet
  facet normal 0 0 1
    outer loop
      vertex 71.6101 56.9607 0.75
      vertex 48.9041 57.5755 0.75
      vertex 70.6025 40.1525 0.75
    endloop
  endfacet
  facet normal 0 0 1
    outer loop
      vertex 48.0307 -26.016 0.75
      vertex 69.9824 -1.13499 0.75
      vertex 69.9824 17.255 0.75
    endloop
  endfacet
  facet normal 0 0 1
    outer loop
      vertex 48.0259 42.1277 0.75
      vertex 48.0307 42.136 0.75
      vertex 48.0264 42.136 0.75
    endloop
  endfacet
  facet normal 0 0 1
    outer loop
      vertex 47.8853 38.8021 0.75
      vertex 48.0307 42.136 0.75
      vertex 48.0259 42.1277 0.75
    endloop
  endfacet
  facet normal -0 -0 1
    outer loop
      vertex 48.0307 42.136 0.75
      vertex 70.6025 40.1525 0.75
      vertex 47.9953 42.4152 0.75
    endloop
  endfacet
  facet normal 0 0 1
    outer loop
      vertex 48.9041 57.5755 0.75
      vertex 71.3587 58.9441 0.75
      vertex 49.034 58.9441 0.75
    endloop
  endfacet
  facet normal 0 0 1
    outer loop
      vertex 70.6025 40.1525 0.75
      vertex 48.9041 57.5755 0.75
      vertex 47.9953 42.4152 0.75
    endloop
  endfacet
  facet normal 0 0 1
    outer loop
      vertex 70.6025 40.1525 0.75
      vertex 47.8853 38.8021 0.75
      vertex 70.495 37.6105 0.75
    endloop
  endfacet
  facet normal 0 0 1
    outer loop
      vertex 69.9824 -1.13499 0.75
      vertex 48.0307 -26.016 0.75
      vertex 67.234 -41.4555 0.75
    endloop
  endfacet
  facet normal 0 0 1
    outer loop
      vertex 47.8853 38.8021 0.75
      vertex 70.6025 40.1525 0.75
      vertex 48.0307 42.136 0.75
    endloop
  endfacet
  facet normal 0 0 1
    outer loop
      vertex 67.234 -41.4555 0.75
      vertex 71.5113 -39.1928 0.75
      vertex 70.6025 -24.0325 0.75
    endloop
  endfacet
  facet normal 0 0 1
    outer loop
      vertex 67.234 -41.4555 0.75
      vertex 70.6025 -24.0325 0.75
      vertex 70.495 -21.4905 0.75
    endloop
  endfacet
  facet normal 0 0 1
    outer loop
      vertex 71.5113 -39.1928 0.75
      vertex 67.234 -41.4555 0.75
      vertex 71.2599 -41.1763 0.75
    endloop
  endfacet
  facet normal 0 0 1
    outer loop
      vertex 70.0194 -3.92863 0.75
      vertex 67.234 -41.4555 0.75
      vertex 70.495 -21.4905 0.75
    endloop
  endfacet
  facet normal 0 0 1
    outer loop
      vertex 67.234 -41.4555 0.75
      vertex 70.0194 -3.92863 0.75
      vertex 69.9824 -1.13499 0.75
    endloop
  endfacet
  facet normal -0 0 1
    outer loop
      vertex 47.9953 -26.2952 0.75
      vertex 67.234 -41.4555 0.75
      vertex 48.0307 -26.016 0.75
    endloop
  endfacet
  facet normal 0 0 1
    outer loop
      vertex 67.234 -41.4555 0.75
      vertex 47.9953 -26.2952 0.75
      vertex 48.9041 -41.4555 0.75
    endloop
  endfacet
  facet normal -0 0 1
    outer loop
      vertex 47.3666 -5.1107 0.75
      vertex 47.8853 -22.6821 0.75
      vertex 47.4069 -4.96712 0.75
    endloop
  endfacet
  facet normal 0 0 1
    outer loop
      vertex 47.8853 -22.6821 0.75
      vertex 47.3666 -5.1107 0.75
      vertex 47.8424 -22.6821 0.75
    endloop
  endfacet
  facet normal -0.992058 0.125784 0
    outer loop
      vertex 47.9953 -26.2952 -0.75
      vertex 48.0307 -26.016 0.75
      vertex 48.0307 -26.016 -0.75
    endloop
  endfacet
  facet normal -0.992058 0.125784 0
    outer loop
      vertex 48.0307 -26.016 0.75
      vertex 47.9953 -26.2952 -0.75
      vertex 47.9953 -26.2952 0.75
    endloop
  endfacet
  facet normal 0 -1 0
    outer loop
      vertex 48.0264 -26.016 -0.75
      vertex 48.0307 -26.016 0.75
      vertex 48.0264 -26.016 0.75
    endloop
  endfacet
  facet normal 0 -1 -0
    outer loop
      vertex 48.0307 -26.016 0.75
      vertex 48.0264 -26.016 -0.75
      vertex 48.0307 -26.016 -0.75
    endloop
  endfacet
  facet normal -0.99819 -0.060132 0
    outer loop
      vertex 48.0264 -26.016 -0.75
      vertex 48.0259 -26.0077 0.75
      vertex 48.0259 -26.0077 -0.75
    endloop
  endfacet
  facet normal -0.99819 -0.060132 0
    outer loop
      vertex 48.0259 -26.0077 0.75
      vertex 48.0264 -26.016 -0.75
      vertex 48.0264 -26.016 0.75
    endloop
  endfacet
  facet normal -0.999107 -0.0422404 0
    outer loop
      vertex 48.0259 -26.0077 -0.75
      vertex 47.8853 -22.6821 0.75
      vertex 47.8853 -22.6821 -0.75
    endloop
  endfacet
  facet normal -0.999107 -0.0422404 0
    outer loop
      vertex 47.8853 -22.6821 0.75
      vertex 48.0259 -26.0077 -0.75
      vertex 48.0259 -26.0077 0.75
    endloop
  endfacet
  facet normal 0 -1 0
    outer loop
      vertex 47.8424 -22.6821 -0.75
      vertex 47.8853 -22.6821 0.75
      vertex 47.8424 -22.6821 0.75
    endloop
  endfacet
  facet normal 0 -1 -0
    outer loop
      vertex 47.8853 -22.6821 0.75
      vertex 47.8424 -22.6821 -0.75
      vertex 47.8853 -22.6821 -0.75
    endloop
  endfacet
  facet normal -0.999634 -0.0270682 0
    outer loop
      vertex 47.8424 -22.6821 -0.75
      vertex 47.3666 -5.1107 0.75
      vertex 47.3666 -5.1107 -0.75
    endloop
  endfacet
  facet normal -0.999634 -0.0270682 0
    outer loop
      vertex 47.3666 -5.1107 0.75
      vertex 47.8424 -22.6821 -0.75
      vertex 47.8424 -22.6821 0.75
    endloop
  endfacet
  facet normal -0.962794 0.270237 0
    outer loop
      vertex 47.3666 -5.1107 -0.75
      vertex 47.4069 -4.96712 0.75
      vertex 47.4069 -4.96712 -0.75
    endloop
  endfacet
  facet normal -0.962794 0.270237 0
    outer loop
      vertex 47.4069 -4.96712 0.75
      vertex 47.3666 -5.1107 -0.75
      vertex 47.3666 -5.1107 0.75
    endloop
  endfacet
  facet normal 0 -1 0
    outer loop
      vertex 47.4034 -4.96712 -0.75
      vertex 47.4069 -4.96712 0.75
      vertex 47.4034 -4.96712 0.75
    endloop
  endfacet
  facet normal 0 -1 -0
    outer loop
      vertex 47.4069 -4.96712 0.75
      vertex 47.4034 -4.96712 -0.75
      vertex 47.4069 -4.96712 -0.75
    endloop
  endfacet
  facet normal -0.999507 -0.0313981 0
    outer loop
      vertex 47.4034 -4.96712 -0.75
      vertex 47.4031 -4.95757 0.75
      vertex 47.4031 -4.95757 -0.75
    endloop
  endfacet
  facet normal -0.999507 -0.0313981 0
    outer loop
      vertex 47.4031 -4.95757 0.75
      vertex 47.4034 -4.96712 -0.75
      vertex 47.4034 -4.96712 0.75
    endloop
  endfacet
  facet normal -0.999913 -0.0132182 0
    outer loop
      vertex 47.4031 -4.95757 -0.75
      vertex 47.3527 -1.14499 0.75
      vertex 47.3527 -1.14499 -0.75
    endloop
  endfacet
  facet normal -0.999913 -0.0132182 0
    outer loop
      vertex 47.3527 -1.14499 0.75
      vertex 47.4031 -4.95757 -0.75
      vertex 47.4031 -4.95757 0.75
    endloop
  endfacet
  facet normal -1 0 0
    outer loop
      vertex 47.3527 -1.14499 -0.75
      vertex 47.3527 -1.14001 0.75
      vertex 47.3527 -1.14001 -0.75
    endloop
  endfacet
  facet normal -1 -0 0
    outer loop
      vertex 47.3527 -1.14001 0.75
      vertex 47.3527 -1.14499 -0.75
      vertex 47.3527 -1.14499 0.75
    endloop
  endfacet
  facet normal -0.000259067 -1 0
    outer loop
      vertex 47.3141 -1.14 -0.75
      vertex 47.3527 -1.14001 0.75
      vertex 47.3141 -1.14 0.75
    endloop
  endfacet
  facet normal -0.000259067 -1 -0
    outer loop
      vertex 47.3527 -1.14001 0.75
      vertex 47.3141 -1.14 -0.75
      vertex 47.3527 -1.14001 -0.75
    endloop
  endfacet
  facet normal -1 0 0
    outer loop
      vertex 47.3141 -1.14 -0.75
      vertex 47.3141 17.26 0.75
      vertex 47.3141 17.26 -0.75
    endloop
  endfacet
  facet normal -1 -0 0
    outer loop
      vertex 47.3141 17.26 0.75
      vertex 47.3141 -1.14 -0.75
      vertex 47.3141 -1.14 0.75
    endloop
  endfacet
  facet normal 0 1 -0
    outer loop
      vertex 47.3527 17.26 -0.75
      vertex 47.3141 17.26 0.75
      vertex 47.3527 17.26 0.75
    endloop
  endfacet
  facet normal 0 1 0
    outer loop
      vertex 47.3141 17.26 0.75
      vertex 47.3527 17.26 -0.75
      vertex 47.3141 17.26 -0.75
    endloop
  endfacet
  facet normal -1 0 0
    outer loop
      vertex 47.3527 17.26 -0.75
      vertex 47.3527 17.265 0.75
      vertex 47.3527 17.265 -0.75
    endloop
  endfacet
  facet normal -1 -0 0
    outer loop
      vertex 47.3527 17.265 0.75
      vertex 47.3527 17.26 -0.75
      vertex 47.3527 17.26 0.75
    endloop
  endfacet
  facet normal -0.999913 0.0132182 0
    outer loop
      vertex 47.3527 17.265 -0.75
      vertex 47.4031 21.0776 0.75
      vertex 47.4031 21.0776 -0.75
    endloop
  endfacet
  facet normal -0.999913 0.0132182 0
    outer loop
      vertex 47.4031 21.0776 0.75
      vertex 47.3527 17.265 -0.75
      vertex 47.3527 17.265 0.75
    endloop
  endfacet
  facet normal -0.999502 0.0315632 0
    outer loop
      vertex 47.4031 21.0776 -0.75
      vertex 47.4034 21.0871 0.75
      vertex 47.4034 21.0871 -0.75
    endloop
  endfacet
  facet normal -0.999502 0.0315632 0
    outer loop
      vertex 47.4034 21.0871 0.75
      vertex 47.4031 21.0776 -0.75
      vertex 47.4031 21.0776 0.75
    endloop
  endfacet
  facet normal 0 1 -0
    outer loop
      vertex 47.4069 21.0871 -0.75
      vertex 47.4034 21.0871 0.75
      vertex 47.4069 21.0871 0.75
    endloop
  endfacet
  facet normal 0 1 0
    outer loop
      vertex 47.4034 21.0871 0.75
      vertex 47.4069 21.0871 -0.75
      vertex 47.4034 21.0871 -0.75
    endloop
  endfacet
  facet normal -0.962804 -0.270202 0
    outer loop
      vertex 47.4069 21.0871 -0.75
      vertex 47.3666 21.2307 0.75
      vertex 47.3666 21.2307 -0.75
    endloop
  endfacet
  facet normal -0.962804 -0.270202 0
    outer loop
      vertex 47.3666 21.2307 0.75
      vertex 47.4069 21.0871 -0.75
      vertex 47.4069 21.0871 0.75
    endloop
  endfacet
  facet normal -0.999634 0.0270682 0
    outer loop
      vertex 47.3666 21.2307 -0.75
      vertex 47.8424 38.8021 0.75
      vertex 47.8424 38.8021 -0.75
    endloop
  endfacet
  facet normal -0.999634 0.0270682 0
    outer loop
      vertex 47.8424 38.8021 0.75
      vertex 47.3666 21.2307 -0.75
      vertex 47.3666 21.2307 0.75
    endloop
  endfacet
  facet normal 0 1 -0
    outer loop
      vertex 47.8853 38.8021 -0.75
      vertex 47.8424 38.8021 0.75
      vertex 47.8853 38.8021 0.75
    endloop
  endfacet
  facet normal 0 1 0
    outer loop
      vertex 47.8424 38.8021 0.75
      vertex 47.8853 38.8021 -0.75
      vertex 47.8424 38.8021 -0.75
    endloop
  endfacet
  facet normal -0.999107 0.0422404 0
    outer loop
      vertex 47.8853 38.8021 -0.75
      vertex 48.0259 42.1277 0.75
      vertex 48.0259 42.1277 -0.75
    endloop
  endfacet
  facet normal -0.999107 0.0422404 0
    outer loop
      vertex 48.0259 42.1277 0.75
      vertex 47.8853 38.8021 -0.75
      vertex 47.8853 38.8021 0.75
    endloop
  endfacet
  facet normal -0.99819 0.060132 0
    outer loop
      vertex 48.0259 42.1277 -0.75
      vertex 48.0264 42.136 0.75
      vertex 48.0264 42.136 -0.75
    endloop
  endfacet
  facet normal -0.99819 0.060132 0
    outer loop
      vertex 48.0264 42.136 0.75
      vertex 48.0259 42.1277 -0.75
      vertex 48.0259 42.1277 0.75
    endloop
  endfacet
  facet normal 0 1 -0
    outer loop
      vertex 48.0307 42.136 -0.75
      vertex 48.0264 42.136 0.75
      vertex 48.0307 42.136 0.75
    endloop
  endfacet
  facet normal 0 1 0
    outer loop
      vertex 48.0264 42.136 0.75
      vertex 48.0307 42.136 -0.75
      vertex 48.0264 42.136 -0.75
    endloop
  endfacet
  facet normal -0.992058 -0.125784 0
    outer loop
      vertex 48.0307 42.136 -0.75
      vertex 47.9953 42.4152 0.75
      vertex 47.9953 42.4152 -0.75
    endloop
  endfacet
  facet normal -0.992058 -0.125784 0
    outer loop
      vertex 47.9953 42.4152 0.75
      vertex 48.0307 42.136 -0.75
      vertex 48.0307 42.136 0.75
    endloop
  endfacet
  facet normal -0.998208 0.0598386 0
    outer loop
      vertex 47.9953 42.4152 -0.75
      vertex 48.9041 57.5755 0.75
      vertex 48.9041 57.5755 -0.75
    endloop
  endfacet
  facet normal -0.998208 0.0598386 0
    outer loop
      vertex 48.9041 57.5755 0.75
      vertex 47.9953 42.4152 -0.75
      vertex 47.9953 42.4152 0.75
    endloop
  endfacet
  facet normal -0.995526 0.0944898 0
    outer loop
      vertex 48.9041 57.5755 -0.75
      vertex 49.034 58.9441 0.75
      vertex 49.034 58.9441 -0.75
    endloop
  endfacet
  facet normal -0.995526 0.0944898 0
    outer loop
      vertex 49.034 58.9441 0.75
      vertex 48.9041 57.5755 -0.75
      vertex 48.9041 57.5755 0.75
    endloop
  endfacet
  facet normal 0 1 -0
    outer loop
      vertex 71.3587 58.9441 -0.75
      vertex 49.034 58.9441 0.75
      vertex 71.3587 58.9441 0.75
    endloop
  endfacet
  facet normal 0 1 0
    outer loop
      vertex 49.034 58.9441 0.75
      vertex 71.3587 58.9441 -0.75
      vertex 49.034 58.9441 -0.75
    endloop
  endfacet
  facet normal 0.992062 0.125746 0
    outer loop
      vertex 71.6101 56.9607 0.75
      vertex 71.3587 58.9441 -0.75
      vertex 71.3587 58.9441 0.75
    endloop
  endfacet
  facet normal 0.992062 0.125746 0
    outer loop
      vertex 71.3587 58.9441 -0.75
      vertex 71.6101 56.9607 0.75
      vertex 71.6101 56.9607 -0.75
    endloop
  endfacet
  facet normal 0.998208 -0.0598395 0
    outer loop
      vertex 70.6025 40.1525 0.75
      vertex 71.6101 56.9607 -0.75
      vertex 71.6101 56.9607 0.75
    endloop
  endfacet
  facet normal 0.998208 -0.0598395 0
    outer loop
      vertex 71.6101 56.9607 -0.75
      vertex 70.6025 40.1525 0.75
      vertex 70.6025 40.1525 -0.75
    endloop
  endfacet
  facet normal 0.999107 -0.0422518 0
    outer loop
      vertex 70.495 37.6105 0.75
      vertex 70.6025 40.1525 -0.75
      vertex 70.6025 40.1525 0.75
    endloop
  endfacet
  facet normal 0.999107 -0.0422518 0
    outer loop
      vertex 70.6025 40.1525 -0.75
      vertex 70.495 37.6105 0.75
      vertex 70.495 37.6105 -0.75
    endloop
  endfacet
  facet normal 0.999634 -0.0270714 0
    outer loop
      vertex 70.0194 20.0486 0.75
      vertex 70.495 37.6105 -0.75
      vertex 70.495 37.6105 0.75
    endloop
  endfacet
  facet normal 0.999634 -0.0270714 0
    outer loop
      vertex 70.495 37.6105 -0.75
      vertex 70.0194 20.0486 0.75
      vertex 70.0194 20.0486 -0.75
    endloop
  endfacet
  facet normal 0.999912 -0.0132434 0
    outer loop
      vertex 69.9824 17.255 0.75
      vertex 70.0194 20.0486 -0.75
      vertex 70.0194 20.0486 0.75
    endloop
  endfacet
  facet normal 0.999912 -0.0132434 0
    outer loop
      vertex 70.0194 20.0486 -0.75
      vertex 69.9824 17.255 0.75
      vertex 69.9824 17.255 -0.75
    endloop
  endfacet
  facet normal 1 -0 0
    outer loop
      vertex 69.9824 -1.13499 0.75
      vertex 69.9824 17.255 -0.75
      vertex 69.9824 17.255 0.75
    endloop
  endfacet
  facet normal 1 0 0
    outer loop
      vertex 69.9824 17.255 -0.75
      vertex 69.9824 -1.13499 0.75
      vertex 69.9824 -1.13499 -0.75
    endloop
  endfacet
  facet normal 0.999912 0.0132432 0
    outer loop
      vertex 70.0194 -3.92863 0.75
      vertex 69.9824 -1.13499 -0.75
      vertex 69.9824 -1.13499 0.75
    endloop
  endfacet
  facet normal 0.999912 0.0132432 0
    outer loop
      vertex 69.9824 -1.13499 -0.75
      vertex 70.0194 -3.92863 0.75
      vertex 70.0194 -3.92863 -0.75
    endloop
  endfacet
  facet normal 0.999634 0.0270715 0
    outer loop
      vertex 70.495 -21.4905 0.75
      vertex 70.0194 -3.92863 -0.75
      vertex 70.0194 -3.92863 0.75
    endloop
  endfacet
  facet normal 0.999634 0.0270715 0
    outer loop
      vertex 70.0194 -3.92863 -0.75
      vertex 70.495 -21.4905 0.75
      vertex 70.495 -21.4905 -0.75
    endloop
  endfacet
  facet normal 0.999107 0.0422518 0
    outer loop
      vertex 70.6025 -24.0325 0.75
      vertex 70.495 -21.4905 -0.75
      vertex 70.495 -21.4905 0.75
    endloop
  endfacet
  facet normal 0.999107 0.0422518 0
    outer loop
      vertex 70.495 -21.4905 -0.75
      vertex 70.6025 -24.0325 0.75
      vertex 70.6025 -24.0325 -0.75
    endloop
  endfacet
  facet normal 0.998208 0.0598386 0
    outer loop
      vertex 71.5113 -39.1928 0.75
      vertex 70.6025 -24.0325 -0.75
      vertex 70.6025 -24.0325 0.75
    endloop
  endfacet
  facet normal 0.998208 0.0598386 0
    outer loop
      vertex 70.6025 -24.0325 -0.75
      vertex 71.5113 -39.1928 0.75
      vertex 71.5113 -39.1928 -0.75
    endloop
  endfacet
  facet normal 0.992063 -0.12574 0
    outer loop
      vertex 71.2599 -41.1763 0.75
      vertex 71.5113 -39.1928 -0.75
      vertex 71.5113 -39.1928 0.75
    endloop
  endfacet
  facet normal 0.992063 -0.12574 0
    outer loop
      vertex 71.5113 -39.1928 -0.75
      vertex 71.2599 -41.1763 0.75
      vertex 71.2599 -41.1763 -0.75
    endloop
  endfacet
  facet normal 0.0691848 -0.997604 0
    outer loop
      vertex 67.234 -41.4555 -0.75
      vertex 71.2599 -41.1763 0.75
      vertex 67.234 -41.4555 0.75
    endloop
  endfacet
  facet normal 0.0691848 -0.997604 0
    outer loop
      vertex 71.2599 -41.1763 0.75
      vertex 67.234 -41.4555 -0.75
      vertex 71.2599 -41.1763 -0.75
    endloop
  endfacet
  facet normal 0 -1 0
    outer loop
      vertex 48.9041 -41.4555 -0.75
      vertex 67.234 -41.4555 0.75
      vertex 48.9041 -41.4555 0.75
    endloop
  endfacet
  facet normal 0 -1 -0
    outer loop
      vertex 67.234 -41.4555 0.75
      vertex 48.9041 -41.4555 -0.75
      vertex 67.234 -41.4555 -0.75
    endloop
  endfacet
  facet normal -0.998208 -0.0598386 0
    outer loop
      vertex 48.9041 -41.4555 -0.75
      vertex 47.9953 -26.2952 0.75
      vertex 47.9953 -26.2952 -0.75
    endloop
  endfacet
  facet normal -0.998208 -0.0598386 0
    outer loop
      vertex 47.9953 -26.2952 0.75
      vertex 48.9041 -41.4555 -0.75
      vertex 48.9041 -41.4555 0.75
    endloop
  endfacet
endsolid OpenSCAD_Model
